<svg xmlns="http://www.w3.org/2000/svg" viewBox="0 0 48 48">
<path fill="#fffc00" d="M24,4C14.1,4,6,12.1,6,22s8.1,18,18,18s18-8.1,18-18S33.9,4,24,4z"></path>
<path d="M24 11c-6.2 0-8.5 4.6-8.5 8.5 0 4.3 2.8 5.9 3.5 6.2.2.1.3.2.3.3v.3c-.2 1.2-.8 1.5-1.2 1.8-.4.2-.7.5-.6.8.1.7 1.6 1.3 3.2 1.7.1.1.3.2.3.4.3 2.4 2 3.9 4.2 3.9 2.3 0 4-1.5 4.2-3.9 0-.2.2-.4.3-.4 1.7-.3 3.1-1 3.2-1.7.1-.4-.2-.7-.6-.8-.4-.3-1-.6-1.2-1.8v-.3c0-.1.1-.3.3-.3.7-.3 3.5-1.9 3.5-6.2C32.5 15.6 30.2 11 24 11z" fill="#000"></path>
</svg>
